<svg preserveAspectRatio="xMidYMid meet" id="comp-k11tjmg0__1pSCZlC4MsmbG0UgsKrGsvgcontent" data-bbox="-2 -5 22 22" viewBox="-2 -5 22 22" height="24" width="24" xmlns:xlink="http://www.w3.org/1999/xlink" xmlns="http://www.w3.org/2000/svg" data-type="color" role="img">
    <g>
        <defs>
            <path d="M18.918 11.298L19 11.5l-.082.201C18.813 11.959 16.293 18 10.5 18c-5.793 0-8.313-6.041-8.418-6.299L2 11.5l.082-.202C2.187 11.041 4.707 5 10.5 5c5.793 0 8.313 6.041 8.418 6.298zM10.5 16.964c4.58 0 6.935-4.452 7.411-5.464-.478-1.01-2.843-5.464-7.411-5.464-4.58 0-6.935 4.452-7.411 5.463.478 1.011 2.843 5.465 7.411 5.465zm0-2.214a3.25 3.25 0 1 1 0-6.5 3.25 3.25 0 0 1 0 6.5zm0-1a2.25 2.25 0 1 0 0-4.5 2.25 2.25 0 0 0 0 4.5z" id="826ee0e3-216f-47cb-a897-6d615df226c0"></path>
        </defs>
        <g transform="translate(-2 -5)" fill-rule="evenodd">
            <mask fill="#ffffff" id="857a01c0-fe82-4ddf-9398-1034b98f1f38">
                <use xlink:href="#826ee0e3-216f-47cb-a897-6d615df226c0"></use>
            </mask>
            <use xlink:href="#826ee0e3-216f-47cb-a897-6d615df226c0" fill-rule="nonzero" fill="#162D3D" data-color="2"></use>
            <g mask="url(#857a01c0-fe82-4ddf-9398-1034b98f1f38)">
                <path fill="#3899EC" d="M22 0v22H0V0h22z" data-color="1"></path>
            </g>
        </g>
    </g>
</svg>